<?xml version="1.0" standalone="no"?>
<!DOCTYPE svg PUBLIC "-//W3C//DTD SVG 20010904//EN"
 "http://www.w3.org/TR/2001/REC-SVG-20010904/DTD/svg10.dtd">
<svg version="1.0" xmlns="http://www.w3.org/2000/svg"
 width="200.000000pt" height="133.000000pt" viewBox="0 0 200.000000 133.000000"
 preserveAspectRatio="xMidYMid meet">
<metadata>
Created by potrace 1.10, written by Peter Selinger 2001-2011
</metadata>
<g transform="translate(0.000000,133.000000) scale(0.100000,-0.100000)"
fill="#000000" stroke="none">


<path d="M667 1093 c-15 -14 -6 -53 14 -64 15 -8 19 -8 15 0 -4 6 -2 11 3 11
6 0 11 14 11 30 0 22 -5 30 -18 30 -10 0 -22 -3 -25 -7z m30 -25 c-5 -32 -27
-35 -27 -4 0 16 6 26 15 26 10 0 14 -8 12 -22z"/>
<path d="M334 1069 c-10 -17 13 -36 27 -22 12 12 4 33 -11 33 -5 0 -12 -5 -16
-11z"/>
<path d="M1304 1052 c7 -11 -11 -17 -41 -13 -7 1 -9 -7 -6 -20 5 -17 3 -20 -8
-13 -18 11 -79 13 -73 2 3 -5 10 -6 15 -3 5 4 9 1 9 -5 0 -6 10 -15 23 -20 12
-5 17 -9 10 -9 -7 -1 -28 8 -47 19 -27 14 -34 16 -29 5 3 -8 10 -15 16 -15 6
0 7 -3 4 -6 -4 -4 -14 -1 -22 6 -20 17 -105 16 -115 0 -6 -9 -9 -9 -13 1 -5
12 -7 12 -15 0 -8 -10 -10 -11 -14 -1 -6 20 -49 22 -70 4 -11 -10 -18 -12 -18
-6 0 7 6 12 13 12 8 0 8 3 -2 9 -8 5 -20 7 -27 4 -7 -2 -14 4 -17 14 -4 16 -5
16 -6 1 -1 -21 -27 -24 -34 -5 -4 9 -6 9 -6 -1 -1 -7 -6 -10 -13 -6 -7 5 -8 3
-3 -6 8 -13 -3 -12 -55 1 -8 2 -14 -2 -12 -8 1 -7 -2 -13 -8 -13 -5 0 -10 5
-10 12 0 6 -6 3 -14 -8 -12 -15 -17 -17 -27 -6 -11 10 -10 12 4 12 9 0 17 5
17 10 0 13 -17 13 -25 0 -4 -6 -23 -9 -43 -8 -21 1 -37 -3 -40 -10 -2 -7 -18
-12 -35 -11 -29 0 -30 1 -9 9 12 5 22 15 21 22 0 10 -2 10 -6 1 -2 -7 -17 -13
-33 -13 -16 0 -30 -6 -33 -12 -3 -9 -7 -7 -12 6 -5 11 -3 22 6 28 12 8 11 9
-1 5 -8 -2 -16 -13 -18 -25 -2 -12 -12 -23 -25 -25 -12 -2 24 -5 81 -6 67 -1
101 3 97 9 -3 6 1 10 10 10 9 0 13 -4 10 -10 -4 -6 17 -10 54 -10 34 0 60 4
59 9 -2 5 2 9 7 9 6 0 9 -4 8 -9 -2 -4 119 -10 268 -11 213 -2 273 0 276 10 4
9 9 10 18 2 7 -6 24 -10 37 -9 12 1 58 1 101 1 l78 -2 -37 -47 c-21 -27 -38
-49 -39 -49 0 -1 -83 1 -185 5 l-185 6 3 -52 4 -53 149 0 c143 0 172 6 132 28
-14 8 -13 11 8 17 13 4 31 13 39 20 21 18 64 30 56 16 -4 -6 -2 -11 3 -11 6 0
11 6 11 13 1 6 11 25 24 41 14 16 22 35 19 43 -4 9 0 11 13 7 14 -4 15 -3 6 4
-8 5 -14 13 -15 18 -1 5 -7 8 -14 6 -8 -2 -10 3 -7 13 3 8 11 15 17 15 6 0 7
3 4 6 -4 4 -13 1 -22 -6 -9 -7 -18 -10 -22 -6 -3 3 -15 -2 -25 -11 -17 -16
-20 -16 -35 0 -13 13 -14 17 -3 17 7 0 11 2 9 5 -3 2 -20 1 -37 -5 -23 -6 -30
-6 -26 2 5 7 2 9 -8 6 -8 -4 -21 -2 -29 2 -8 6 -16 4 -20 -2 -15 -25 -36 -16
-34 14 1 16 -3 32 -8 35 -6 3 -7 1 -3 -5z m2 -33 c3 -6 2 -15 -2 -19 -12 -12
-38 5 -30 19 9 14 23 14 32 0z m-6 -201 c0 -10 3 -9 9 1 8 12 12 12 25 2 12
-11 16 -11 16 -1 0 10 3 10 15 0 8 -7 12 -17 8 -23 -4 -6 -8 -7 -10 -2 -2 6
-39 9 -86 7 -63 -3 -86 0 -95 11 -10 12 -2 14 53 16 47 1 65 -2 65 -11z"/>
<path d="M420 939 c-13 -9 -12 -10 2 -5 10 3 20 0 24 -6 4 -6 3 -8 -2 -5 -6 3
-16 2 -24 -4 -13 -7 -13 -9 1 -9 9 0 16 -6 16 -12 1 -7 3 -28 6 -45 3 -25 0
-34 -14 -38 -11 -4 -19 -11 -19 -17 0 -6 6 -6 15 2 9 7 18 10 22 7 8 -9 -17
-38 -28 -31 -5 3 -6 -2 -3 -10 5 -13 10 -11 26 9 10 14 18 28 15 32 -2 5 8 19
21 33 14 14 22 19 17 11 -6 -10 -2 -12 14 -6 24 7 27 -4 9 -25 -11 -12 -10
-12 3 -2 8 6 25 9 37 5 16 -4 22 -1 22 11 0 19 36 22 43 4 4 -10 6 -10 6 0 1
7 16 12 42 12 38 0 40 -1 28 -17 -13 -17 -12 -17 6 -2 27 21 75 23 97 2 10 -9
18 -12 18 -7 0 5 7 -4 15 -20 9 -16 13 -31 10 -34 -3 -3 -5 -1 -5 5 0 6 -9 13
-19 16 -14 3 -18 1 -14 -9 3 -8 1 -14 -5 -14 -6 0 -13 6 -15 13 -4 9 -6 9 -6
0 -1 -19 18 -26 34 -13 12 10 15 9 15 -9 0 -12 5 -19 10 -16 16 10 12 -31 -5
-45 -8 -7 -13 -16 -10 -20 3 -5 2 -15 -1 -24 -5 -12 -10 -13 -26 -5 -28 15
-51 -7 -26 -25 14 -10 15 -15 5 -26 -9 -10 -7 -10 7 0 15 12 20 12 23 2 3 -6
9 -10 14 -6 5 3 9 -1 9 -10 0 -8 -12 -19 -27 -24 -16 -6 -22 -11 -15 -11 7 -1
10 -7 7 -13 -4 -7 0 -5 8 5 8 9 17 17 21 17 12 0 6 -17 -18 -45 -24 -28 -24
-28 -31 -5 -6 20 -13 56 -17 87 -1 7 -5 10 -10 7 -4 -3 -3 -15 3 -26 9 -16 8
-23 -2 -29 -10 -6 -11 -9 -1 -9 17 0 15 -27 -2 -33 -10 -4 -18 5 -26 28 -6 19
-17 32 -25 31 -22 -3 -28 -13 -20 -33 5 -10 7 -22 6 -27 -1 -5 5 -3 14 4 8 7
19 10 22 6 4 -4 1 -12 -7 -17 -12 -9 -11 -10 4 -5 13 5 17 2 12 -9 -3 -8 0
-15 7 -15 8 0 7 -4 -3 -9 -8 -6 -18 -7 -23 -4 -5 3 -4 -4 3 -16 13 -26 35 -23
35 5 0 15 6 18 30 15 40 -4 44 -7 40 -36 -1 -14 2 -28 6 -31 5 -3 9 -10 9 -15
0 -6 -5 -7 -12 -3 -7 5 -8 3 -3 -5 9 -16 22 -3 28 29 2 14 3 6 2 -17 -1 -24 1
-43 6 -43 5 0 9 -7 9 -15 0 -8 -6 -12 -14 -9 -8 3 -17 1 -20 -4 -3 -5 5 -8 19
-7 26 3 69 -27 57 -40 -4 -4 3 -2 15 4 18 9 22 9 17 -2 -3 -9 4 -17 18 -20 21
-5 21 -5 6 7 -10 7 -15 15 -13 18 3 3 -5 13 -17 24 -12 10 -18 13 -13 5 5 -9
4 -12 -3 -7 -6 4 -9 12 -6 19 2 7 -7 24 -21 37 l-26 25 2 212 c1 117 5 213 9
213 3 0 4 16 2 35 l-4 36 -174 -7 -173 -7 -43 47 c-35 37 -46 44 -58 35z"/>
<path d="M566 929 c3 -6 20 -9 36 -7 21 4 27 1 24 -9 -3 -7 -1 -13 4 -13 6 0
10 5 10 11 0 5 4 8 8 5 4 -2 14 -1 22 4 8 5 25 3 41 -6 32 -16 43 -18 35 -5
-3 5 6 11 19 14 17 3 29 -1 35 -12 6 -10 10 -11 10 -3 0 6 7 12 15 12 8 0 15
4 15 9 0 5 -63 9 -140 10 -96 0 -138 -3 -134 -10z"/>
<path d="M948 869 c9 -10 12 -84 12 -300 0 -267 1 -287 18 -285 12 1 17 -6 16
-21 0 -17 3 -20 12 -12 6 5 11 17 9 27 -1 9 0 11 2 5 3 -7 9 -13 15 -13 7 0 7
-4 -1 -13 -8 -10 -7 -14 4 -14 8 0 12 4 9 9 -3 4 -1 8 4 8 4 0 18 9 30 21 13
11 28 17 35 13 9 -6 9 -4 -1 8 -10 13 -9 16 9 21 15 4 19 2 15 -8 -3 -9 0 -12
10 -8 13 5 11 10 -7 29 -12 13 -17 24 -11 24 7 0 12 5 12 11 0 18 31 37 52 31
28 -7 21 -23 -9 -20 -24 3 -28 -1 -28 -22 0 -21 4 -25 25 -22 42 4 55 11 42
24 -8 8 -8 17 -1 30 5 10 7 23 3 29 -4 6 0 15 7 20 11 7 11 9 1 9 -12 0 -37
47 -33 63 1 5 -3 6 -9 2 -6 -3 -8 -10 -5 -15 11 -17 -11 -16 -27 2 -10 10 -13
18 -8 18 6 0 10 14 10 31 0 17 -4 28 -10 24 -5 -3 -10 0 -10 9 0 8 6 17 13 19
9 4 9 6 -1 6 -10 1 -10 4 2 16 19 20 151 22 141 3 -4 -7 3 -2 14 11 25 28 63
23 40 -6 -13 -15 -12 -15 8 -2 12 7 18 16 13 19 -5 3 -5 11 0 20 9 13 10 13
10 0 1 -10 5 -7 13 8 7 12 17 19 21 15 4 -4 7 -3 6 2 -1 6 -2 19 -1 30 1 15 3
17 10 6 7 -10 13 -11 30 -2 11 7 21 14 21 17 0 2 -9 0 -20 -6 -26 -14 -25 -6
3 21 l22 21 -22 -11 c-20 -10 -23 -9 -23 5 0 10 -13 -2 -30 -28 -48 -72 -50
-73 -169 -69 -58 1 -111 7 -118 13 -9 7 -10 2 -3 -24 6 -18 10 -91 10 -162 l0
-129 -42 -46 c-50 -54 -57 -58 -57 -34 0 10 0 135 -1 279 0 143 2 268 6 277 5
14 0 17 -29 17 -20 0 -44 3 -54 6 -15 6 -16 4 -5 -7z m40 -427 c1 15 6 30 12
33 6 4 7 -19 3 -61 -5 -54 -4 -66 7 -59 9 5 11 4 6 -4 -12 -19 -26 -2 -27 32
l-1 32 -8 -30 c-4 -16 -7 74 -7 200 l1 230 6 -200 c3 -110 7 -188 8 -173z m15
108 c3 -34 2 -47 -3 -35 -8 19 -14 103 -6 94 2 -2 6 -29 9 -59z m212 -126 c3
-17 -1 -21 -15 -17 -11 3 -25 11 -31 19 -9 11 -7 14 10 14 11 0 21 4 21 10 0
5 -7 7 -15 4 -18 -7 -20 7 -3 24 10 10 14 8 22 -10 5 -13 10 -33 11 -44z"/>
<path d="M932 643 c-1 -121 -6 -204 -12 -208 -15 -10 -12 -52 5 -59 9 -3 15 0
15 10 0 8 -4 12 -10 9 -5 -3 -10 0 -10 9 0 8 5 16 10 18 7 2 9 77 7 213 l-2
210 -3 -202z"/>
<path d="M354 819 c-10 -17 13 -36 27 -22 12 12 4 33 -11 33 -5 0 -12 -5 -16
-11z"/>
<path d="M641 786 c-7 -8 -11 -18 -10 -22 4 -22 -2 -32 -18 -30 -13 1 -18 -7
-18 -25 -1 -18 3 -25 12 -22 7 3 13 9 13 14 0 5 5 9 10 9 17 0 11 -28 -7 -33
-10 -2 -4 -4 14 -3 24 1 29 4 21 14 -16 19 -3 25 16 7 9 -9 16 -12 16 -6 0 6
-9 15 -20 21 -17 9 -18 14 -8 30 7 10 16 16 21 13 5 -3 4 4 -2 15 -15 29 -27
34 -40 18z"/>
<path d="M1092 774 c4 -34 26 -41 103 -33 l60 6 -79 1 c-78 2 -78 2 -74 27 3
14 1 25 -4 25 -5 0 -8 -12 -6 -26z"/>
<path d="M1090 630 c0 -5 0 -13 1 -16 0 -4 -5 -11 -13 -15 -11 -7 -11 -9 1 -9
7 0 11 -6 7 -15 -3 -8 0 -15 5 -15 7 0 4 -11 -6 -26 -9 -14 -14 -28 -11 -32 3
-3 6 1 6 9 1 8 7 3 15 -11 13 -23 14 -19 15 58 0 48 -4 82 -10 82 -5 0 -10 -4
-10 -10z"/>
<path d="M1265 558 c4 -11 2 -18 -4 -18 -6 0 -11 5 -11 12 0 6 -3 8 -6 5 -4
-4 -2 -12 3 -19 13 -16 8 -48 -9 -59 -8 -6 2 -7 25 -4 26 3 36 1 31 -7 -4 -7
-3 -8 5 -4 6 4 9 11 6 16 -3 5 0 12 6 16 6 3 15 1 19 -7 5 -8 8 1 7 22 -2 27
-7 35 -24 37 -21 3 -28 -6 -24 -30 0 -5 -6 -8 -14 -8 -13 0 -14 4 -4 21 8 16
8 24 -1 33 -8 8 -10 7 -5 -6z m65 -33 c0 -8 -7 -15 -15 -15 -8 0 -15 -5 -15
-12 0 -6 -2 -9 -5 -7 -2 3 -2 15 2 27 6 25 33 30 33 7z"/>
<path d="M623 484 c-8 -21 13 -42 28 -27 13 13 5 43 -11 43 -6 0 -13 -7 -17
-16z"/>
<path d="M1214 236 c-14 -11 -16 -17 -7 -26 15 -16 32 -5 30 20 -1 11 -2 20
-2 20 -1 0 -10 -6 -21 -14z"/>
<path d="M981 197 c-11 -14 -18 -35 -11 -34 3 0 16 -5 29 -12 13 -7 21 -8 17
-3 -3 6 -2 13 3 17 5 3 9 13 8 23 -1 21 -31 26 -46 9z m36 -21 c-2 -6 -13 -12
-25 -12 -18 -1 -20 2 -11 17 10 19 43 15 36 -5z"/>


</g>
</svg>
